<mxfile>
    <diagram id="GbfLMAckD6MeiqXDSkTi" name="第 1 页">
        <mxGraphModel dx="1122" dy="907" grid="1" gridSize="10" guides="1" tooltips="1" connect="1" arrows="1" fold="1" page="1" pageScale="1" pageWidth="1600" pageHeight="900" math="0" shadow="0">
            <root>
                <mxCell id="0"/>
                <mxCell id="1" parent="0"/>
                <mxCell id="ToXubZRBVhyi8-YCE2ib-1" value="&lt;font style=&quot;font-size: 36px&quot;&gt;前端&lt;/font&gt;" style="ellipse;whiteSpace=wrap;html=1;" parent="1" vertex="1">
                    <mxGeometry x="130" y="245" width="150" height="120" as="geometry"/>
                </mxCell>
                <mxCell id="FGAL-BLb6r8HgP-uqtzM-1" value="&lt;font style=&quot;font-size: 36px&quot;&gt;api-convert-cli&lt;/font&gt;" style="ellipse;whiteSpace=wrap;html=1;" parent="1" vertex="1">
                    <mxGeometry x="390" y="260" width="340" height="80" as="geometry"/>
                </mxCell>
                <mxCell id="FGAL-BLb6r8HgP-uqtzM-2" value="&lt;span style=&quot;font-size: 36px&quot;&gt;后端&lt;/span&gt;" style="ellipse;whiteSpace=wrap;html=1;" parent="1" vertex="1">
                    <mxGeometry x="860" y="222.5" width="150" height="125" as="geometry"/>
                </mxCell>
                <mxCell id="FGAL-BLb6r8HgP-uqtzM-7" value="" style="shape=flexArrow;endArrow=classic;html=1;strokeColor=#6666FF;" parent="1" edge="1">
                    <mxGeometry width="50" height="50" relative="1" as="geometry">
                        <mxPoint x="760" y="282.5" as="sourcePoint"/>
                        <mxPoint x="840" y="282.5" as="targetPoint"/>
                        <Array as="points"/>
                    </mxGeometry>
                </mxCell>
                <mxCell id="FGAL-BLb6r8HgP-uqtzM-8" value="" style="shape=flexArrow;endArrow=classic;html=1;strokeColor=#6666FF;" parent="1" edge="1">
                    <mxGeometry width="50" height="50" relative="1" as="geometry">
                        <mxPoint x="300" y="280" as="sourcePoint"/>
                        <mxPoint x="380" y="280" as="targetPoint"/>
                        <Array as="points">
                            <mxPoint x="340" y="280"/>
                        </Array>
                    </mxGeometry>
                </mxCell>
                <mxCell id="FGAL-BLb6r8HgP-uqtzM-9" value="&lt;font color=&quot;#6666ff&quot;&gt;&lt;span style=&quot;font-size: 24px&quot;&gt;request&lt;/span&gt;&lt;/font&gt;" style="text;html=1;strokeColor=none;fillColor=none;align=center;verticalAlign=middle;whiteSpace=wrap;rounded=0;" parent="1" vertex="1">
                    <mxGeometry x="300" y="240" width="80" height="20" as="geometry"/>
                </mxCell>
                <mxCell id="FGAL-BLb6r8HgP-uqtzM-10" value="&lt;span style=&quot;color: rgb(102 , 102 , 255) ; font-size: 24px&quot;&gt;request&lt;/span&gt;" style="text;html=1;strokeColor=none;fillColor=none;align=center;verticalAlign=middle;whiteSpace=wrap;rounded=0;" parent="1" vertex="1">
                    <mxGeometry x="770" y="251.25" width="50" height="7.5" as="geometry"/>
                </mxCell>
                <mxCell id="FGAL-BLb6r8HgP-uqtzM-11" value="&lt;div style=&quot;text-align: left&quot;&gt;&lt;font color=&quot;#6666ff&quot;&gt;&lt;span style=&quot;font-size: 18px&quot;&gt;Request&lt;/span&gt;&lt;/font&gt;&lt;/div&gt;&lt;div style=&quot;text-align: left&quot;&gt;&lt;span style=&quot;font-size: 18px&quot;&gt;&lt;font color=&quot;#6666ff&quot;&gt;&lt;br&gt;&lt;/font&gt;&lt;/span&gt;&lt;/div&gt;&lt;div style=&quot;text-align: left&quot;&gt;&lt;span style=&quot;font-size: 18px&quot;&gt;&lt;font color=&quot;#6666ff&quot;&gt;将url上的参数或body转换为ts&lt;/font&gt;&lt;/span&gt;&lt;/div&gt;&lt;div style=&quot;text-align: left&quot;&gt;&lt;br&gt;&lt;/div&gt;" style="text;html=1;strokeColor=none;fillColor=none;align=center;verticalAlign=middle;whiteSpace=wrap;rounded=0;" parent="1" vertex="1">
                    <mxGeometry x="425" y="160" width="270" height="85" as="geometry"/>
                </mxCell>
                <mxCell id="FGAL-BLb6r8HgP-uqtzM-12" value="" style="shape=flexArrow;endArrow=classic;html=1;" parent="1" edge="1">
                    <mxGeometry width="50" height="50" relative="1" as="geometry">
                        <mxPoint x="380" y="320" as="sourcePoint"/>
                        <mxPoint x="300" y="320" as="targetPoint"/>
                    </mxGeometry>
                </mxCell>
                <mxCell id="FGAL-BLb6r8HgP-uqtzM-13" value="" style="shape=flexArrow;endArrow=classic;html=1;" parent="1" edge="1">
                    <mxGeometry width="50" height="50" relative="1" as="geometry">
                        <mxPoint x="840" y="322.5" as="sourcePoint"/>
                        <mxPoint x="760" y="322.5" as="targetPoint"/>
                    </mxGeometry>
                </mxCell>
                <mxCell id="FGAL-BLb6r8HgP-uqtzM-14" value="&lt;span style=&quot;font-size: 24px&quot;&gt;response&lt;/span&gt;" style="text;html=1;strokeColor=none;fillColor=none;align=center;verticalAlign=middle;whiteSpace=wrap;rounded=0;" parent="1" vertex="1">
                    <mxGeometry x="305" y="350" width="70" height="20" as="geometry"/>
                </mxCell>
                <mxCell id="FGAL-BLb6r8HgP-uqtzM-15" value="&lt;font style=&quot;font-size: 24px&quot;&gt;response&lt;/font&gt;" style="text;html=1;strokeColor=none;fillColor=none;align=center;verticalAlign=middle;whiteSpace=wrap;rounded=0;" parent="1" vertex="1">
                    <mxGeometry x="780" y="355" width="40" height="7.5" as="geometry"/>
                </mxCell>
                <mxCell id="FGAL-BLb6r8HgP-uqtzM-16" value="&lt;div style=&quot;text-align: left&quot;&gt;&lt;span style=&quot;font-size: 18px&quot;&gt;Response&lt;/span&gt;&lt;/div&gt;&lt;div style=&quot;text-align: left&quot;&gt;&lt;span style=&quot;font-size: 18px&quot;&gt;&lt;br&gt;&lt;/span&gt;&lt;/div&gt;&lt;div style=&quot;text-align: left&quot;&gt;&lt;span style=&quot;font-size: 18px&quot;&gt;将返回的数据转为ts，并保存json和jsonschema；利用保存的json来mock返回&lt;/span&gt;&lt;/div&gt;" style="text;html=1;strokeColor=none;fillColor=none;align=center;verticalAlign=middle;whiteSpace=wrap;rounded=0;" parent="1" vertex="1">
                    <mxGeometry x="440" y="420" width="270" height="100" as="geometry"/>
                </mxCell>
                <mxCell id="FGAL-BLb6r8HgP-uqtzM-17" value="&lt;font style=&quot;font-size: 14px&quot;&gt;http://localhost:4200&lt;/font&gt;" style="rounded=0;whiteSpace=wrap;html=1;" parent="1" vertex="1">
                    <mxGeometry x="140" y="370" width="130" height="30" as="geometry"/>
                </mxCell>
                <mxCell id="FGAL-BLb6r8HgP-uqtzM-18" value="&lt;font style=&quot;font-size: 14px&quot;&gt;http://localhost:5800&lt;/font&gt;" style="rounded=0;whiteSpace=wrap;html=1;" parent="1" vertex="1">
                    <mxGeometry x="440" y="365" width="130" height="30" as="geometry"/>
                </mxCell>
                <mxCell id="FGAL-BLb6r8HgP-uqtzM-19" value="&lt;font style=&quot;font-size: 14px&quot;&gt;http://your.api.com&lt;/font&gt;" style="rounded=0;whiteSpace=wrap;html=1;" parent="1" vertex="1">
                    <mxGeometry x="870" y="357.5" width="130" height="30" as="geometry"/>
                </mxCell>
            </root>
        </mxGraphModel>
    </diagram>
</mxfile>